<svg width="33" height="32" viewBox="0 0 33 32" fill="none" xmlns="http://www.w3.org/2000/svg">
<path d="M29.1852 14.5627C29.4239 14.4574 29.6265 14.2844 29.7678 14.0651C29.9091 13.8459 29.983 13.5899 29.9803 13.3291C29.9776 13.0682 29.8985 12.8138 29.7526 12.5975C29.6068 12.3812 29.4007 12.2124 29.1599 12.1121L17.7319 6.90674C17.3845 6.74827 17.0071 6.66626 16.6252 6.66626C16.2434 6.66626 15.866 6.74827 15.5186 6.90674L4.09189 12.1067C3.85451 12.2107 3.65257 12.3816 3.51077 12.5985C3.36897 12.8154 3.29346 13.0689 3.29346 13.3281C3.29346 13.5872 3.36897 13.8407 3.51077 14.0576C3.65257 14.2746 3.85451 14.4454 4.09189 14.5494L15.5186 19.7601C15.866 19.9185 16.2434 20.0005 16.6252 20.0005C17.0071 20.0005 17.3845 19.9185 17.7319 19.7601L29.1852 14.5627Z" stroke="#2B7FFF" stroke-width="2.66667" stroke-linecap="round" stroke-linejoin="round"/>
<path d="M29.9585 13.3334V21.3334" stroke="#2B7FFF" stroke-width="2.66667" stroke-linecap="round" stroke-linejoin="round"/>
<path d="M8.625 16.6666V21.3333C8.625 22.3942 9.46786 23.4116 10.9681 24.1617C12.4684 24.9119 14.5033 25.3333 16.625 25.3333C18.7467 25.3333 20.7816 24.9119 22.2819 24.1617C23.7821 23.4116 24.625 22.3942 24.625 21.3333V16.6666" stroke="#2B7FFF" stroke-width="2.66667" stroke-linecap="round" stroke-linejoin="round"/>
</svg>
