<svg width="33" height="32" viewBox="0 0 33 32" fill="none" xmlns="http://www.w3.org/2000/svg">
<path d="M16.5 9.33337V28" stroke="#2B7FFF" stroke-width="2.66667" stroke-linecap="round" stroke-linejoin="round"/>
<path d="M4.50008 24C4.14646 24 3.80732 23.8595 3.55727 23.6095C3.30722 23.3594 3.16675 23.0203 3.16675 22.6667V5.33333C3.16675 4.97971 3.30722 4.64057 3.55727 4.39052C3.80732 4.14048 4.14646 4 4.50008 4H11.1667C12.5812 4 13.9378 4.5619 14.938 5.5621C15.9382 6.56229 16.5001 7.91885 16.5001 9.33333C16.5001 7.91885 17.062 6.56229 18.0622 5.5621C19.0624 4.5619 20.4189 4 21.8334 4H28.5001C28.8537 4 29.1928 4.14048 29.4429 4.39052C29.6929 4.64057 29.8334 4.97971 29.8334 5.33333V22.6667C29.8334 23.0203 29.6929 23.3594 29.4429 23.6095C29.1928 23.8595 28.8537 24 28.5001 24H20.5001C19.4392 24 18.4218 24.4214 17.6717 25.1716C16.9215 25.9217 16.5001 26.9391 16.5001 28C16.5001 26.9391 16.0787 25.9217 15.3285 25.1716C14.5784 24.4214 13.5609 24 12.5001 24H4.50008Z" stroke="#2B7FFF" stroke-width="2.66667" stroke-linecap="round" stroke-linejoin="round"/>
</svg>
