<svg width="49" height="48" viewBox="0 0 49 48" fill="none" xmlns="http://www.w3.org/2000/svg">
<path d="M24.5 14V42" stroke="#AD46FF" stroke-width="4" stroke-linecap="round" stroke-linejoin="round"/>
<path d="M6.5 36C5.96957 36 5.46086 35.7893 5.08579 35.4142C4.71071 35.0391 4.5 34.5304 4.5 34V8C4.5 7.46957 4.71071 6.96086 5.08579 6.58579C5.46086 6.21071 5.96957 6 6.5 6H16.5C18.6217 6 20.6566 6.84285 22.1569 8.34315C23.6571 9.84344 24.5 11.8783 24.5 14C24.5 11.8783 25.3429 9.84344 26.8431 8.34315C28.3434 6.84285 30.3783 6 32.5 6H42.5C43.0304 6 43.5391 6.21071 43.9142 6.58579C44.2893 6.96086 44.5 7.46957 44.5 8V34C44.5 34.5304 44.2893 35.0391 43.9142 35.4142C43.5391 35.7893 43.0304 36 42.5 36H30.5C28.9087 36 27.3826 36.6321 26.2574 37.7574C25.1321 38.8826 24.5 40.4087 24.5 42C24.5 40.4087 23.8679 38.8826 22.7426 37.7574C21.6174 36.6321 20.0913 36 18.5 36H6.5Z" stroke="#AD46FF" stroke-width="4" stroke-linecap="round" stroke-linejoin="round"/>
</svg>
