<svg width="13" height="12" viewBox="0 0 13 12" fill="none" xmlns="http://www.w3.org/2000/svg">
<g clip-path="url(#clip0_444_1110)">
<path d="M11.0724 4.99999C11.3008 6.12064 11.138 7.28571 10.6114 8.30089C10.0847 9.31608 9.22587 10.12 8.17818 10.5787C7.13049 11.0373 5.95724 11.1229 4.85407 10.8212C3.75091 10.5195 2.78452 9.84869 2.11606 8.92071C1.44761 7.99272 1.11749 6.86361 1.18076 5.72169C1.24403 4.57976 1.69686 3.49404 2.46375 2.64558C3.23064 1.79712 4.26522 1.23721 5.39496 1.05922C6.5247 0.881233 7.68132 1.09592 8.67192 1.66749" stroke="#016630" stroke-linecap="round" stroke-linejoin="round"/>
<path d="M4.67188 5.5L6.17188 7L11.1719 2" stroke="#016630" stroke-linecap="round" stroke-linejoin="round"/>
</g>
<defs>
<clipPath id="clip0_444_1110">
<rect width="12" height="12" fill="white" transform="translate(0.171875)"/>
</clipPath>
</defs>
</svg>
