<svg width="17" height="16" viewBox="0 0 17 16" fill="none" xmlns="http://www.w3.org/2000/svg">
<path d="M8.29688 2H3.63021C3.27659 2 2.93745 2.14048 2.6874 2.39052C2.43735 2.64057 2.29688 2.97971 2.29688 3.33333V12.6667C2.29688 13.0203 2.43735 13.3594 2.6874 13.6095C2.93745 13.8595 3.27659 14 3.63021 14H12.9635C13.3172 14 13.6563 13.8595 13.9064 13.6095C14.1564 13.3594 14.2969 13.0203 14.2969 12.6667V8" stroke="#0A0A0A" stroke-width="1.33333" stroke-linecap="round" stroke-linejoin="round"/>
<path d="M12.5468 1.75003C12.812 1.48481 13.1717 1.33582 13.5468 1.33582C13.9218 1.33582 14.2816 1.48481 14.5468 1.75003C14.812 2.01525 14.961 2.37496 14.961 2.75003C14.961 3.1251 14.812 3.48481 14.5468 3.75003L8.53811 9.75936C8.37981 9.91753 8.18424 10.0333 7.96944 10.096L6.05411 10.656C5.99674 10.6728 5.93593 10.6738 5.87805 10.6589C5.82016 10.6441 5.76733 10.614 5.72507 10.5717C5.68282 10.5295 5.6527 10.4766 5.63787 10.4188C5.62304 10.3609 5.62404 10.3001 5.64077 10.2427L6.20077 8.32736C6.26379 8.11273 6.3798 7.9174 6.53811 7.75936L12.5468 1.75003Z" stroke="#0A0A0A" stroke-width="1.33333" stroke-linecap="round" stroke-linejoin="round"/>
</svg>
