<svg width="17" height="16" viewBox="0 0 17 16" fill="none" xmlns="http://www.w3.org/2000/svg">
<g clip-path="url(#clip0_444_867)">
<path d="M8.76562 4.66663V14" stroke="#0A0A0A" stroke-width="1.33333" stroke-linecap="round" stroke-linejoin="round"/>
<path d="M2.76554 12C2.58873 12 2.41916 11.9298 2.29414 11.8047C2.16911 11.6797 2.09888 11.5101 2.09888 11.3333V2.66667C2.09888 2.48986 2.16911 2.32029 2.29414 2.19526C2.41916 2.07024 2.58873 2 2.76554 2H6.09888C6.80612 2 7.4844 2.28095 7.98449 2.78105C8.48459 3.28115 8.76554 3.95942 8.76554 4.66667C8.76554 3.95942 9.04649 3.28115 9.54659 2.78105C10.0467 2.28095 10.725 2 11.4322 2H14.7655C14.9424 2 15.1119 2.07024 15.2369 2.19526C15.362 2.32029 15.4322 2.48986 15.4322 2.66667V11.3333C15.4322 11.5101 15.362 11.6797 15.2369 11.8047C15.1119 11.9298 14.9424 12 14.7655 12H10.7655C10.2351 12 9.7264 12.2107 9.35133 12.5858C8.97626 12.9609 8.76554 13.4696 8.76554 14C8.76554 13.4696 8.55483 12.9609 8.17976 12.5858C7.80468 12.2107 7.29598 12 6.76554 12H2.76554Z" stroke="#0A0A0A" stroke-width="1.33333" stroke-linecap="round" stroke-linejoin="round"/>
</g>
<defs>
<clipPath id="clip0_444_867">
<rect width="16" height="16" fill="white" transform="translate(0.765625)"/>
</clipPath>
</defs>
</svg>
