<svg width="30" height="30" viewBox="0 0 30 30" fill="none" xmlns="http://www.w3.org/2000/svg">
<circle cx="15" cy="15" r="3.75" stroke="black"/>
<path d="M18.1248 8.125L17.9203 8.26544C17.4214 8.60828 16.7346 8.43261 16.4616 7.8923L15.8923 6.76596C15.5224 6.03403 14.4772 6.03403 14.1073 6.76596L13.4761 8.01485C13.2259 8.51006 12.6203 8.70683 12.1267 8.4533L10.882 7.81392C10.1525 7.43921 9.30698 8.05355 9.43793 8.86311L9.66138 10.2445C9.74998 10.7922 9.3757 11.3074 8.8274 11.3924L7.44458 11.6067C6.63417 11.7324 6.31119 12.7264 6.89298 13.3044L7.88571 14.2906C8.27934 14.6816 8.27934 15.3184 7.88571 15.7094L6.89299 16.6956C6.31119 17.2736 6.63417 18.2676 7.44458 18.3933L8.82739 18.6076C9.3757 18.6926 9.74998 19.2078 9.66138 19.7555L9.43793 21.1369C9.30698 21.9465 10.1525 22.5608 10.882 22.1861L12.1267 21.5467C12.6203 21.2932 13.2259 21.4899 13.4761 21.9851L14.1073 23.234C14.4772 23.966 15.5224 23.966 15.8923 23.234L16.5235 21.9851C16.7738 21.4899 17.3794 21.2932 17.8729 21.5467L19.1176 22.1861C19.8471 22.5608 20.6927 21.9465 20.5617 21.1369L20.3383 19.7555C20.2497 19.2078 20.6239 18.6926 21.1723 18.6076L22.5551 18.3933C23.3655 18.2676 23.6885 17.2736 23.1067 16.6956L22.1139 15.7094C21.7203 15.3184 21.7203 14.6816 22.1139 14.2906L23.1067 13.3044C23.6885 12.7264 23.3655 11.7324 22.5551 11.6067L21.0243 11.3694C20.537 11.2939 20.1775 10.8744 20.1775 10.3812V10" stroke="black" stroke-linecap="round"/>
</svg>
